<?xml version="1.0" encoding="UTF-8" standalone="no"?>
<!-- Created with Inkscape (http://www.inkscape.org/) -->

<svg
   xmlns:dc="http://purl.org/dc/elements/1.1/"
   xmlns:cc="http://creativecommons.org/ns#"
   xmlns:rdf="http://www.w3.org/1999/02/22-rdf-syntax-ns#"
   xmlns:svg="http://www.w3.org/2000/svg"
   xmlns="http://www.w3.org/2000/svg"
   xmlns:sodipodi="http://sodipodi.sourceforge.net/DTD/sodipodi-0.dtd"
   xmlns:inkscape="http://www.inkscape.org/namespaces/inkscape"
   width="744.09448819"
   height="1052.3622047"
   id="svg2"
   version="1.1"
   inkscape:version="0.48.4 r9939"
   sodipodi:docname="nodejs.svg">
  <defs
     id="defs4" />
  <sodipodi:namedview
     id="base"
     pagecolor="#ffffff"
     bordercolor="#666666"
     borderopacity="1.0"
     inkscape:pageopacity="0.0"
     inkscape:pageshadow="2"
     inkscape:zoom="0.36777344"
     inkscape:cx="235.92215"
     inkscape:cy="396.41273"
     inkscape:document-units="px"
     inkscape:current-layer="layer1"
     showgrid="false"
     inkscape:window-width="1366"
     inkscape:window-height="705"
     inkscape:window-x="-8"
     inkscape:window-y="-8"
     inkscape:window-maximized="1" />
  <metadata
     id="metadata7">
    <rdf:RDF>
      <cc:Work
         rdf:about="">
        <dc:format>image/svg+xml</dc:format>
        <dc:type
           rdf:resource="http://purl.org/dc/dcmitype/StillImage" />
        <dc:title></dc:title>
      </cc:Work>
    </rdf:RDF>
  </metadata>
  <g
     inkscape:label="Layer 1"
     inkscape:groupmode="layer"
     id="layer1">
    <rect
       style="fill:#005f10;fill-opacity:0.79255319;stroke:none;opacity:1"
       id="rect3082"
       width="512"
       height="512"
       x="-99.978813"
       y="359.63126"
       inkscape:export-filename="C:\Users\Michael\Documents\Web\Me\img\nodejs.png"
       inkscape:export-xdpi="89.999992"
       inkscape:export-ydpi="89.999992" />
    <g
       id="g3046"
       transform="matrix(0.7095968,0,0,0.7095968,42.485699,502.09577)"
       style="fill:#b8f6ff;fill-opacity:1"
       inkscape:export-filename="C:\Users\Michael\Documents\Web\Me\img\nodejs.png"
       inkscape:export-xdpi="89.999992"
       inkscape:export-ydpi="89.999992">
	<g
   id="icon-nodejs_small"
   style="fill:#b8f6ff;fill-opacity:1">
		<path
   id="path3049"
   d="m 159.917,384 c -5.77,0 -11.536,-1.562 -16.633,-4.599 l -52.985,-32.44 c -7.914,-4.562 -4.023,-6.203 -1.443,-7.141 10.565,-3.781 13.713,-5.657 24.947,-12.285 1.206,-0.667 2.747,-0.424 3.955,0.322 l 39.71,23.504 c 1.476,0.85 3.557,0.85 4.931,0 l 155.188,-92.246 c 1.475,-0.877 2.415,-2.646 2.415,-4.441 V 67.869 c 0,-1.85 -0.94,-3.592 -2.449,-4.528 l -155.12,-94.672 c -1.478,-0.894 -3.421,-0.894 -4.898,0 L 2.516,63.374 C 0.972,64.277 0,66.072 0,67.869 v 186.805 c 0,1.813 0.972,3.513 2.481,4.389 L 42.41,283.035 C 66.02,295.239 80,282.865 80,268.424 V 84.725 c 0,-2.652 2.047,-4.727 4.596,-4.727 h 22.809 c 2.515,0 4.597,2.072 4.597,4.727 v 183.698 c 0,32.563 -19.353,51.248 -49.199,51.248 -9.156,0 -16.397,0 -36.552,-10.279 L -15.333,284.611 C -25.629,278.459 -32,266.965 -32,254.656 V 65.191 c 0,-12.316 6.371,-23.784 16.665,-29.917 L 143.35,-59.59 c 10.027,-5.88 23.374,-5.88 33.332,0 l 158.65,94.864 C 345.63,41.423 352,52.899 352,65.191 v 189.465 c 0,12.309 -6.37,23.75 -16.668,29.953 l -158.65,94.774 c -5.097,3.036 -10.832,4.599 -16.698,4.599 L 159.917,384 z"
   inkscape:connector-curvature="0"
   style="fill:#b8f6ff;fill-opacity:1" />

		<path
   id="path3051"
   d="m 208.943,255.998 c -64.61,0 -84.006,-31.61 -84.006,-59.271 0,-2.629 2.048,-4.729 4.562,-4.729 h 20.521 c 2.282,0 4.227,1.7 4.562,4.016 3.084,21.602 16.748,31.15 54.324,31.15 33.399,0 47.091,-10.346 47.091,-28.684 0,-10.592 -3.463,-18.424 -55.407,-23.697 -43.427,-4.441 -70.288,-14.373 -70.288,-50.295 0,-33.135 26.996,-52.49 72.234,-52.49 46.128,0 76.462,14 79.173,50.829 0.102,1.337 -0.368,2.629 -1.241,3.644 -0.871,0.965 -2.078,1.527 -3.353,1.527 h -20.591 c -2.146,0 -4.024,-1.562 -4.459,-3.713 -4.401,-16.953 -16.97,-23.402 -49.563,-23.402 -36.486,0 -40.746,12.753 -40.746,22.607 0,11.963 5.031,15.441 54.294,22.172 48.761,6.663 71.933,16.117 71.933,51.552 0,35.781 -28.808,58.783 -79.075,58.783 l 0.035,10e-4 0,0 z"
   inkscape:connector-curvature="0"
   style="fill:#b8f6ff;fill-opacity:1" />

	</g>

</g>
  </g>
</svg>
